<?xml version="1.0" encoding="UTF-8" standalone="no"?>
<!DOCTYPE svg PUBLIC "-//W3C//DTD SVG 1.1//EN"
 "http://www.w3.org/Graphics/SVG/1.1/DTD/svg11.dtd">
<!-- Generated by graphviz version 12.2.1 (20241206.2353)
 -->
<!-- Title: G Pages: 1 -->
<svg width="453pt" height="369pt"
 viewBox="0.00 0.00 453.48 369.00" xmlns="http://www.w3.org/2000/svg" xmlns:xlink="http://www.w3.org/1999/xlink">
<g id="graph0" class="graph" transform="scale(1 1) rotate(0) translate(4 365)">
<title>G</title><style>.edge>path:hover{stroke-width:8}</style>
<polygon fill="white" stroke="none" points="-4,4 -4,-365 449.48,-365 449.48,4 -4,4"/>
<!-- app_py -->
<g id="node1" class="node">
<title>app_py</title><style>.edge>path:hover{stroke-width:8}</style>
<ellipse fill="#8b4b4b" stroke="black" cx="283.32" cy="-18" rx="27" ry="18"/>
<text text-anchor="middle" x="283.32" y="-14.12" font-family="Helvetica,sans-Serif" font-size="10.00" fill="#ffffff">app.py</text>
</g>
<!-- cv2 -->
<g id="node2" class="node">
<title>cv2</title><style>.edge>path:hover{stroke-width:8}</style>
<ellipse fill="#e9900c" stroke="black" cx="314.32" cy="-271" rx="27" ry="18"/>
<text text-anchor="middle" x="314.32" y="-267.12" font-family="Helvetica,sans-Serif" font-size="10.00" fill="#000000">cv2</text>
</g>
<!-- cv2&#45;&gt;app_py -->
<g id="edge1" class="edge">
<title>cv2&#45;&gt;app_py</title><style>.edge>path:hover{stroke-width:8}</style>
<path fill="none" stroke="black" d="M137.32,-198C126.43,-168.86 114.85,-149.52 137.32,-128"/>
<path fill="none" stroke="black" d="M287.04,-270.09C242.97,-268.5 158.89,-257.73 137.32,-200"/>
</g>
<!-- functions -->
<g id="node3" class="node">
<title>functions</title><style>.edge>path:hover{stroke-width:8}</style>
<ellipse fill="#92a446" stroke="black" cx="76.32" cy="-199" rx="32.99" ry="18"/>
<text text-anchor="middle" x="76.32" y="-195.12" font-family="Helvetica,sans-Serif" font-size="10.00" fill="#000000">functions</text>
</g>
<!-- cv2&#45;&gt;functions -->
<g id="edge2" class="edge">
<title>cv2&#45;&gt;functions</title><style>.edge>path:hover{stroke-width:8}</style>
<path fill="none" stroke="black" d="M289.11,-263.66C252.39,-254.28 182.17,-235.78 123.32,-217 120.22,-216.01 117.02,-214.95 113.81,-213.85"/>
<polygon fill="#e9900c" stroke="black" points="115.06,-210.58 104.47,-210.57 112.74,-217.18 115.06,-210.58"/>
</g>
<!-- hand_tracking_module -->
<g id="node4" class="node">
<title>hand_tracking_module</title><style>.edge>path:hover{stroke-width:8}</style>
<ellipse fill="#59a446" stroke="black" cx="378.32" cy="-127" rx="67.16" ry="18"/>
<text text-anchor="middle" x="378.32" y="-123.12" font-family="Helvetica,sans-Serif" font-size="10.00" fill="#000000">hand_tracking_module</text>
</g>
<!-- cv2&#45;&gt;hand_tracking_module -->
<g id="edge3" class="edge">
<title>cv2&#45;&gt;hand_tracking_module</title><style>.edge>path:hover{stroke-width:8}</style>
<path fill="none" stroke="black" d="M315.49,-252.79C317.3,-234.24 321.88,-204.25 333.32,-181 338.25,-170.98 345.49,-161.28 352.74,-152.97"/>
<polygon fill="#e9900c" stroke="black" points="355.26,-155.4 359.46,-145.68 350.11,-150.66 355.26,-155.4"/>
</g>
<!-- mediapipe -->
<g id="node6" class="node">
<title>mediapipe</title><style>.edge>path:hover{stroke-width:8}</style>
<ellipse fill="#3ab0b0" stroke="black" cx="378.32" cy="-199" rx="35.65" ry="18"/>
<text text-anchor="middle" x="378.32" y="-195.12" font-family="Helvetica,sans-Serif" font-size="10.00" fill="#000000">mediapipe</text>
</g>
<!-- cv2&#45;&gt;mediapipe -->
<g id="edge4" class="edge">
<title>cv2&#45;&gt;mediapipe</title><style>.edge>path:hover{stroke-width:8}</style>
<path fill="none" stroke="black" d="M327.89,-255.15C336.15,-246.12 346.89,-234.38 356.33,-224.05"/>
<polygon fill="#e9900c" stroke="black" points="358.69,-226.66 362.85,-216.91 353.52,-221.93 358.69,-226.66"/>
</g>
<!-- video_capture -->
<g id="node10" class="node">
<title>video_capture</title><style>.edge>path:hover{stroke-width:8}</style>
<ellipse fill="#ac4984" stroke="black" cx="210.32" cy="-127" rx="45.41" ry="18"/>
<text text-anchor="middle" x="210.32" y="-123.12" font-family="Helvetica,sans-Serif" font-size="10.00" fill="#ffffff">video_capture</text>
</g>
<!-- cv2&#45;&gt;video_capture -->
<g id="edge5" class="edge">
<title>cv2&#45;&gt;video_capture</title><style>.edge>path:hover{stroke-width:8}</style>
<path fill="none" stroke="black" d="M137.32,-198C129.2,-176.28 148.89,-158.33 169.86,-146.06"/>
<polygon fill="#e9900c" stroke="black" points="171.36,-149.22 178.48,-141.38 168.02,-143.07 171.36,-149.22"/>
</g>
<!-- functions&#45;&gt;app_py -->
<g id="edge6" class="edge">
<title>functions&#45;&gt;app_py</title><style>.edge>path:hover{stroke-width:8}</style>
<path fill="none" stroke="black" d="M283.32,-72C285.57,-64.15 286.26,-55.38 286.2,-47.27"/>
<polygon fill="#92a446" stroke="black" points="289.71,-47.38 285.74,-37.55 282.71,-47.7 289.71,-47.38"/>
<path fill="none" stroke="black" d="M88.88,-181.98C100.72,-167.3 119.27,-145.28 137.32,-128"/>
<path fill="none" stroke="black" d="M137.32,-126C145.5,-118.16 146.39,-114.46 156.32,-109 207.72,-80.72 267.17,-129.4 283.32,-73"/>
</g>
<!-- hand_tracking_module&#45;&gt;app_py -->
<g id="edge7" class="edge">
<title>hand_tracking_module&#45;&gt;app_py</title><style>.edge>path:hover{stroke-width:8}</style>
<path fill="none" stroke="black" d="M323.52,-116.22C299.25,-108.68 277.35,-95.55 283.32,-73"/>
</g>
<!-- logger -->
<g id="node5" class="node">
<title>logger</title><style>.edge>path:hover{stroke-width:8}</style>
<ellipse fill="#3bce76" stroke="black" cx="259.32" cy="-199" rx="27" ry="18"/>
<text text-anchor="middle" x="259.32" y="-195.12" font-family="Helvetica,sans-Serif" font-size="10.00" fill="#000000">logger</text>
</g>
<!-- logger&#45;&gt;app_py -->
<g id="edge8" class="edge">
<title>logger&#45;&gt;app_py</title><style>.edge>path:hover{stroke-width:8}</style>
<path fill="none" stroke="black" d="M261.84,-180.85C265.59,-156.6 273.26,-111.03 283.32,-73"/>
</g>
<!-- logger&#45;&gt;hand_tracking_module -->
<g id="edge9" class="edge">
<title>logger&#45;&gt;hand_tracking_module</title><style>.edge>path:hover{stroke-width:8}</style>
<path fill="none" stroke="black" d="M279.24,-186.28C296.29,-176.25 321.3,-161.54 341.92,-149.41"/>
<polygon fill="#3bce76" stroke="black" points="343.48,-152.55 350.33,-144.46 339.93,-146.52 343.48,-152.55"/>
</g>
<!-- logger&#45;&gt;video_capture -->
<g id="edge10" class="edge">
<title>logger&#45;&gt;video_capture</title><style>.edge>path:hover{stroke-width:8}</style>
<path fill="none" stroke="black" d="M248.2,-182.12C242.42,-173.85 235.2,-163.54 228.62,-154.14"/>
<polygon fill="#3bce76" stroke="black" points="231.55,-152.22 222.94,-146.04 225.81,-156.24 231.55,-152.22"/>
</g>
<!-- mediapipe&#45;&gt;hand_tracking_module -->
<g id="edge11" class="edge">
<title>mediapipe&#45;&gt;hand_tracking_module</title><style>.edge>path:hover{stroke-width:8}</style>
<path fill="none" stroke="black" d="M378.32,-180.7C378.32,-173.41 378.32,-164.73 378.32,-156.54"/>
<polygon fill="#3ab0b0" stroke="black" points="381.82,-156.62 378.32,-146.62 374.82,-156.62 381.82,-156.62"/>
</g>
<!-- numpy -->
<g id="node7" class="node">
<title>numpy</title><style>.edge>path:hover{stroke-width:8}</style>
<ellipse fill="#3370cc" stroke="black" cx="341.32" cy="-343" rx="27" ry="18"/>
<text text-anchor="middle" x="341.32" y="-339.12" font-family="Helvetica,sans-Serif" font-size="10.00" fill="#ffffff">numpy</text>
</g>
<!-- numpy&#45;&gt;cv2 -->
<g id="edge12" class="edge">
<title>numpy&#45;&gt;cv2</title><style>.edge>path:hover{stroke-width:8}</style>
<path fill="none" stroke="black" d="M334.78,-325.05C331.8,-317.32 328.19,-307.96 324.84,-299.27"/>
<polygon fill="#3370cc" stroke="black" points="328.2,-298.27 321.34,-290.2 321.67,-300.79 328.2,-298.27"/>
</g>
<!-- numpy&#45;&gt;mediapipe -->
<g id="edge13" class="edge">
<title>numpy&#45;&gt;mediapipe</title><style>.edge>path:hover{stroke-width:8}</style>
<path fill="none" stroke="black" d="M345.78,-324.87C352.03,-300.88 363.47,-256.99 370.98,-228.16"/>
<polygon fill="#3370cc" stroke="black" points="374.32,-229.21 373.46,-218.65 367.55,-227.45 374.32,-229.21"/>
</g>
<!-- pyautogui -->
<g id="node8" class="node">
<title>pyautogui</title><style>.edge>path:hover{stroke-width:8}</style>
<ellipse fill="#5940c0" stroke="black" cx="34.32" cy="-271" rx="34.32" ry="18"/>
<text text-anchor="middle" x="34.32" y="-267.12" font-family="Helvetica,sans-Serif" font-size="10.00" fill="#ffffff">pyautogui</text>
</g>
<!-- pyautogui&#45;&gt;functions -->
<g id="edge14" class="edge">
<title>pyautogui&#45;&gt;functions</title><style>.edge>path:hover{stroke-width:8}</style>
<path fill="none" stroke="black" d="M44.27,-253.41C49.14,-245.3 55.11,-235.35 60.57,-226.25"/>
<polygon fill="#5940c0" stroke="black" points="63.51,-228.14 65.66,-217.77 57.51,-224.54 63.51,-228.14"/>
</g>
<!-- pydantic -->
<g id="node9" class="node">
<title>pydantic</title><style>.edge>path:hover{stroke-width:8}</style>
<ellipse fill="#a640c0" stroke="black" cx="118.32" cy="-271" rx="31.21" ry="18"/>
<text text-anchor="middle" x="118.32" y="-267.12" font-family="Helvetica,sans-Serif" font-size="10.00" fill="#ffffff">pydantic</text>
</g>
<!-- pydantic&#45;&gt;functions -->
<g id="edge15" class="edge">
<title>pydantic&#45;&gt;functions</title><style>.edge>path:hover{stroke-width:8}</style>
<path fill="none" stroke="black" d="M108.58,-253.76C103.72,-245.67 97.72,-235.66 92.21,-226.49"/>
<polygon fill="#a640c0" stroke="black" points="95.22,-224.71 87.08,-217.93 89.22,-228.31 95.22,-224.71"/>
</g>
<!-- video_capture&#45;&gt;app_py -->
<g id="edge16" class="edge">
<title>video_capture&#45;&gt;app_py</title><style>.edge>path:hover{stroke-width:8}</style>
<path fill="none" stroke="black" d="M242.97,-114.04C259.94,-105.63 278.19,-92.38 283.32,-73"/>
</g>
</g>
</svg>
